<?xml version='1.0' encoding='UTF-8'?>
<mxfile host="app.diagrams.net" modified="2025-05-06T12:00:00.000Z" agent="ChatGPT" version="24.5.2">
  <diagram name="Enhanced Music Player Use Case" id="1">
    <mxGraphModel dx="1220" dy="720" grid="1" gridSize="10" guides="1" tooltips="1" connect="1" arrows="1" fold="1" page="1" pageScale="1" pageWidth="850" pageHeight="1100" math="0" shadow="0">
      <root>
        <mxCell id="0"/>
        <mxCell id="1" parent="0"/>
        <mxCell id="system" value="Music Player System" style="swimlane;fontStyle=1;align=center;verticalAlign=top;childLayout=stackLayout;horizontal=1;startSize=30;horizontalStack=0;resizeParent=1;collapsible=0;rounded=1;strokeColor=#000000;fillColor=none;" vertex="1" parent="1">
          <mxGeometry x="200" y="100" width="800" height="600" as_="geometry"/>
        </mxCell>
        <mxCell id="user" value="User" style="actor;shape=umlActor;verticalLabelPosition=bottom;verticalAlign=top;" vertex="1" parent="1">
          <mxGeometry x="100" y="300" width="40" height="80" as_="geometry"/>
        </mxCell>
        <mxCell id="uc1" value="Play Song" style="ellipse;whiteSpace=wrap;align=center;strokeColor=#000000;fillColor=#ffffff;" vertex="1" parent="system">
          <mxGeometry x="50" y="50" width="180" height="60" as_="geometry"/>
        </mxCell>
        <mxCell style="edgeStyle=orthogonalEdgeStyle;html=1;" edge="1" parent="1" source="user" target="uc1">
          <mxGeometry relative="1" as_="geometry"/>
        </mxCell>
        <mxCell id="uc2" value="Pause Playback" style="ellipse;whiteSpace=wrap;align=center;strokeColor=#000000;fillColor=#ffffff;" vertex="1" parent="system">
          <mxGeometry x="50" y="130" width="180" height="60" as_="geometry"/>
        </mxCell>
        <mxCell style="edgeStyle=orthogonalEdgeStyle;html=1;" edge="1" parent="1" source="user" target="uc2">
          <mxGeometry relative="1" as_="geometry"/>
        </mxCell>
        <mxCell id="uc3" value="Resume Playback" style="ellipse;whiteSpace=wrap;align=center;strokeColor=#000000;fillColor=#ffffff;" vertex="1" parent="system">
          <mxGeometry x="50" y="210" width="180" height="60" as_="geometry"/>
        </mxCell>
        <mxCell style="edgeStyle=orthogonalEdgeStyle;html=1;" edge="1" parent="1" source="user" target="uc3">
          <mxGeometry relative="1" as_="geometry"/>
        </mxCell>
        <mxCell id="uc4" value="Stop Playback" style="ellipse;whiteSpace=wrap;align=center;strokeColor=#000000;fillColor=#ffffff;" vertex="1" parent="system">
          <mxGeometry x="50" y="290" width="180" height="60" as_="geometry"/>
        </mxCell>
        <mxCell style="edgeStyle=orthogonalEdgeStyle;html=1;" edge="1" parent="1" source="user" target="uc4">
          <mxGeometry relative="1" as_="geometry"/>
        </mxCell>
        <mxCell id="uc5" value="Skip to Next Song" style="ellipse;whiteSpace=wrap;align=center;strokeColor=#000000;fillColor=#ffffff;" vertex="1" parent="system">
          <mxGeometry x="50" y="370" width="180" height="60" as_="geometry"/>
        </mxCell>
        <mxCell style="edgeStyle=orthogonalEdgeStyle;html=1;" edge="1" parent="1" source="user" target="uc5">
          <mxGeometry relative="1" as_="geometry"/>
        </mxCell>
        <mxCell id="uc6" value="Skip to Previous Song" style="ellipse;whiteSpace=wrap;align=center;strokeColor=#000000;fillColor=#ffffff;" vertex="1" parent="system">
          <mxGeometry x="50" y="450" width="180" height="60" as_="geometry"/>
        </mxCell>
        <mxCell style="edgeStyle=orthogonalEdgeStyle;html=1;" edge="1" parent="1" source="user" target="uc6">
          <mxGeometry relative="1" as_="geometry"/>
        </mxCell>
        <mxCell id="uc7" value="Toggle Loop Mode" style="ellipse;whiteSpace=wrap;align=center;strokeColor=#000000;fillColor=#ffffff;" vertex="1" parent="system">
          <mxGeometry x="50" y="530" width="180" height="60" as_="geometry"/>
        </mxCell>
        <mxCell style="edgeStyle=orthogonalEdgeStyle;html=1;" edge="1" parent="1" source="user" target="uc7">
          <mxGeometry relative="1" as_="geometry"/>
        </mxCell>
        <mxCell id="uc8" value="Add Song to Playlist" style="ellipse;whiteSpace=wrap;align=center;strokeColor=#000000;fillColor=#ffffff;" vertex="1" parent="system">
          <mxGeometry x="300" y="50" width="180" height="60" as_="geometry"/>
        </mxCell>
        <mxCell style="edgeStyle=orthogonalEdgeStyle;html=1;" edge="1" parent="1" source="user" target="uc8">
          <mxGeometry relative="1" as_="geometry"/>
        </mxCell>
        <mxCell id="uc9" value="Remove Song from Playlist" style="ellipse;whiteSpace=wrap;align=center;strokeColor=#000000;fillColor=#ffffff;" vertex="1" parent="system">
          <mxGeometry x="300" y="130" width="180" height="60" as_="geometry"/>
        </mxCell>
        <mxCell style="edgeStyle=orthogonalEdgeStyle;html=1;" edge="1" parent="1" source="user" target="uc9">
          <mxGeometry relative="1" as_="geometry"/>
        </mxCell>
        <mxCell id="uc10" value="Clear Playlist" style="ellipse;whiteSpace=wrap;align=center;strokeColor=#000000;fillColor=#ffffff;" vertex="1" parent="system">
          <mxGeometry x="300" y="210" width="180" height="60" as_="geometry"/>
        </mxCell>
        <mxCell style="edgeStyle=orthogonalEdgeStyle;html=1;" edge="1" parent="1" source="user" target="uc10">
          <mxGeometry relative="1" as_="geometry"/>
        </mxCell>
        <mxCell id="uc11" value="View Playlist" style="ellipse;whiteSpace=wrap;align=center;strokeColor=#000000;fillColor=#ffffff;" vertex="1" parent="system">
          <mxGeometry x="300" y="290" width="180" height="60" as_="geometry"/>
        </mxCell>
        <mxCell style="edgeStyle=orthogonalEdgeStyle;html=1;" edge="1" parent="1" source="user" target="uc11">
          <mxGeometry relative="1" as_="geometry"/>
        </mxCell>
        <mxCell id="uc12" value="Handle User Input" style="ellipse;whiteSpace=wrap;align=center;strokeColor=#000000;fillColor=#ffffff;" vertex="1" parent="system">
          <mxGeometry x="550" y="50" width="180" height="60" as_="geometry"/>
        </mxCell>
        <mxCell style="edgeStyle=orthogonalEdgeStyle;html=1;" edge="1" parent="1" source="user" target="uc12">
          <mxGeometry relative="1" as_="geometry"/>
        </mxCell>
        <mxCell id="uc13" value="Display Help Information" style="ellipse;whiteSpace=wrap;align=center;strokeColor=#000000;fillColor=#ffffff;" vertex="1" parent="system">
          <mxGeometry x="550" y="130" width="180" height="60" as_="geometry"/>
        </mxCell>
        <mxCell style="edgeStyle=orthogonalEdgeStyle;html=1;" edge="1" parent="1" source="user" target="uc13">
          <mxGeometry relative="1" as_="geometry"/>
        </mxCell>
        <mxCell id="uc14" value="Format UI Output" style="ellipse;whiteSpace=wrap;align=center;strokeColor=#000000;fillColor=#ffffff;" vertex="1" parent="system">
          <mxGeometry x="550" y="210" width="180" height="60" as_="geometry"/>
        </mxCell>
        <mxCell style="edgeStyle=orthogonalEdgeStyle;html=1;" edge="1" parent="1" source="user" target="uc14">
          <mxGeometry relative="1" as_="geometry"/>
        </mxCell>
        <mxCell style="endArrow=block;dashed=1;html=1;label=&lt;&lt;include&gt;&gt;;" value="&lt;&lt;include&gt;&gt;" edge="1" parent="1" source="uc1" target="uc12">
          <mxGeometry relative="1" as_="geometry"/>
        </mxCell>
      </root>
    </mxGraphModel>
  </diagram>
</mxfile>
